# xmcd
# 
# Track frame offsets:
#     150
#     26541
#     58635
#     91983
#     114775
#     138346
#     168241
#     195865
# 
# Disc length: 3034
# 
# Revision: 2
# Processed by: cddbd v1.5.2PL0 Copyright (c) Steve Scherf et al.
# Submitted via: fre:ac v1.0.17
# 
DISCID=570bd808
DTITLE=Vintersorg - Orkan (2012)
DYEAR=0
DGENRE=Metal
TTITLE0=Istid
TTITLE1=Ur Stjärnstoft Är Vi Komna
TTITLE2=Polarnatten
TTITLE3=Myren
TTITLE4=Orkan
TTITLE5=Havets Nad
TTITLE6=Norrskenssyner
TTITLE7=Urvädersfangen
EXTD=
EXTT0=
EXTT1=
EXTT2=
EXTT3=
EXTT4=
EXTT5=
EXTT6=
EXTT7=
PLAYORDER=
